<svg width="71" height="65" viewBox="0 0 71 65" fill="none" xmlns="http://www.w3.org/2000/svg">
<g filter="url(#filter0_d_507_151)">
<path d="M4.19141 6C4.19141 2.68629 6.8777 0 10.1914 0H64.4522C67.7659 0 70.4522 2.68627 70.4522 5.99996L70.4525 56C70.4525 59.3137 67.7662 62 64.4525 62H10.1914C6.87769 62 4.19141 59.3137 4.19141 56V6Z" fill="#E662BE"/>
</g>
<path d="M37.1744 40.1865C36.7459 40.1865 36.3984 40.5184 36.3984 40.9275C36.3984 41.3367 36.7459 41.6686 37.1744 41.6686C37.6032 41.6686 37.9507 41.3367 37.9507 40.9275C37.9507 40.5184 37.6033 40.1865 37.1744 40.1865Z" fill="white"/>
<path d="M51.0138 37.5752H23.3347C21.37 37.5752 19.7773 39.0835 19.7773 40.959C19.7773 42.8345 21.37 44.3428 23.3347 44.3428H51.0138C52.9784 44.3428 54.5712 42.8345 54.5712 40.959C54.5712 39.0835 52.9783 37.5752 51.0138 37.5752ZM27.9649 42.7195C26.9286 42.7195 26.0886 41.9174 26.0886 40.9282C26.0886 39.9389 26.9286 39.1368 27.9649 39.1368C29.0015 39.1368 29.8415 39.9389 29.8415 40.9282C29.8415 41.9174 29.0014 42.7195 27.9649 42.7195ZM37.1741 42.7195C36.1378 42.7195 35.2978 41.9174 35.2978 40.9282C35.2978 39.9389 36.1378 39.1368 37.1741 39.1368C38.2106 39.1368 39.0506 39.9389 39.0506 40.9282C39.0506 41.9174 38.2106 42.7195 37.1741 42.7195ZM46.3834 42.7195C45.347 42.7195 44.507 41.9174 44.507 40.9282C44.507 39.9389 45.347 39.1368 46.3834 39.1368C47.4198 39.1368 48.2598 39.9389 48.2598 40.9282C48.2598 41.9174 47.4198 42.7195 46.3834 42.7195Z" fill="white"/>
<path d="M46.3837 41.6686C46.8124 41.6686 47.16 41.3368 47.16 40.9275C47.16 40.5183 46.8124 40.1865 46.3837 40.1865C45.955 40.1865 45.6074 40.5183 45.6074 40.9275C45.6074 41.3368 45.955 41.6686 46.3837 41.6686Z" fill="white"/>
<path d="M27.9657 41.6686C28.3944 41.6686 28.742 41.3368 28.742 40.9275C28.742 40.5183 28.3944 40.1865 27.9657 40.1865C27.537 40.1865 27.1895 40.5183 27.1895 40.9275C27.1895 41.3368 27.537 41.6686 27.9657 41.6686Z" fill="white"/>
<path d="M40.6076 46.1885H29.617C29.3722 46.1885 29.1738 46.3993 29.1738 46.6328C29.1738 46.8663 29.3722 47.0771 29.617 47.0771H40.6076C40.8522 47.0771 41.0508 46.8663 41.0508 46.6328C41.0508 46.3993 40.8522 46.1885 40.6076 46.1885Z" fill="white"/>
<path d="M44.7238 46.1885H42.9841C42.7395 46.1885 42.541 46.3993 42.541 46.6328C42.541 46.8663 42.7394 47.0771 42.9841 47.0771H44.7238C44.9684 47.0771 45.1669 46.8663 45.1669 46.6328C45.1669 46.3993 44.9684 46.1885 44.7238 46.1885Z" fill="white"/>
<path d="M48.47 33.2954C48.992 33.4782 49.2539 33.7283 49.4455 34.2264C49.5274 34.4393 49.8385 34.4393 49.9204 34.2264C50.1119 33.7283 50.3738 33.4782 50.896 33.2954C51.1189 33.2171 51.1189 32.92 50.896 32.8418C50.3738 32.659 50.1119 32.409 49.9204 31.9106C49.8385 31.6978 49.5274 31.6978 49.4455 31.9106C49.2539 32.409 48.992 32.659 48.47 32.8418C48.247 32.92 48.247 33.2172 48.47 33.2954Z" fill="white"/>
<path d="M24.8761 15.4683C25.3982 15.651 25.6601 15.9011 25.8516 16.3992C25.9335 16.6122 26.2448 16.6122 26.3266 16.3992C26.5181 15.9011 26.7802 15.651 27.302 15.4683C27.5251 15.39 27.5251 15.0928 27.302 15.0147C26.7802 14.8319 26.5181 14.5818 26.3266 14.0834C26.2448 13.8706 25.9335 13.8706 25.8516 14.0834C25.6601 14.5818 25.3982 14.8319 24.8761 15.0147C24.6533 15.0928 24.6533 15.39 24.8761 15.4683Z" fill="white"/>
<path d="M27.5781 21.1415C27.7966 21.2452 28.063 21.1658 28.1721 20.9568C29.853 17.7273 33.2421 15.7239 37.017 15.7228C38.1075 15.723 39.1656 15.8815 40.1599 16.1976C40.2202 15.9153 40.3235 15.6273 40.4632 15.3813C39.375 15.0328 38.2164 14.8115 37.022 14.8115C37.0205 14.8115 37.0185 14.8115 37.017 14.8115C37.0153 14.8115 37.0134 14.8115 37.0119 14.8115C32.9003 14.8115 29.2095 17.0347 27.3785 20.5522C27.2695 20.7615 27.359 21.0376 27.5781 21.1415Z" fill="white"/>
<path d="M27.1325 22.2981C26.8962 22.2412 26.6541 22.377 26.5936 22.6035C26.3722 23.4319 26.2598 24.2892 26.2598 25.1517C26.2598 26.0143 26.3722 26.8716 26.5938 27.7001C26.6448 27.8913 26.825 28.0185 27.0226 28.0185C27.0589 28.0185 27.0957 28.0141 27.1326 28.005C27.3696 27.9473 27.5128 27.717 27.4522 27.4906C27.249 26.7308 27.146 25.9438 27.146 25.1517C27.146 24.3597 27.249 23.5727 27.4524 22.8125C27.5127 22.5862 27.3695 22.3559 27.1325 22.2981Z" fill="white"/>
<path d="M37.0121 35.3877C37.0127 35.3877 37.0132 35.3877 37.0137 35.3877C37.0157 35.3877 37.0185 35.3877 37.0205 35.3877C37.021 35.3877 37.0216 35.3877 37.0221 35.3877C41.1336 35.3877 44.8244 33.2167 46.6556 29.6991C46.7645 29.49 46.675 29.245 46.4559 29.141C46.237 29.0371 45.9707 29.127 45.8619 29.3362C44.1808 32.5653 40.7917 34.5742 37.017 34.5754C33.2422 34.5742 29.8531 32.5689 28.1722 29.3394C28.0631 29.1302 27.7967 29.0454 27.5782 29.1495C27.359 29.2534 27.2695 29.4896 27.3785 29.6988C29.2097 33.2164 32.9005 35.3877 37.0121 35.3877Z" fill="white"/>
<path d="M46.5822 22.8126C46.7855 23.5728 46.8886 24.3598 46.8886 25.1518C46.8886 25.9439 46.7855 26.7309 46.5823 27.4907C46.5217 27.7172 46.6649 27.9475 46.9019 28.0051C46.9389 28.0142 46.9756 28.0186 47.012 28.0186C47.2096 28.0186 47.3897 27.8913 47.4408 27.7001C47.6623 26.8717 47.7748 26.0144 47.7748 25.1518C47.7748 24.2893 47.6623 23.432 47.4409 22.6035C47.3805 22.3772 47.1391 22.241 46.9021 22.2982C46.665 22.356 46.5218 22.5863 46.5822 22.8126Z" fill="white"/>
<path d="M43.1277 19.6812C43.7116 19.6812 44.2548 19.5207 44.7174 19.2473C45.1556 19.7706 45.5406 20.3439 45.8626 20.9625C45.9401 21.1113 46.097 21.1974 46.2598 21.1974C46.3261 21.1974 46.3934 21.1833 46.4566 21.1531C46.6758 21.0492 46.7653 20.7953 46.6563 20.5862C46.3024 19.9058 45.878 19.2762 45.3952 18.7017C45.867 18.1921 46.1555 17.5245 46.1555 16.7908C46.1555 15.1945 44.7997 13.9004 43.1277 13.9004C41.4553 13.9004 40.0996 15.1946 40.0996 16.7908C40.0996 18.3872 41.4553 19.6812 43.1277 19.6812ZM41.9478 16.3152H42.5969V15.6644C42.5969 15.4309 42.8536 15.2414 43.0982 15.2414C43.3428 15.2414 43.5995 15.4308 43.5995 15.6644V16.3152H44.3073C44.552 16.3152 44.7505 16.5602 44.7505 16.7937C44.7505 17.0272 44.552 17.2722 44.3073 17.2722H43.5995V17.9168C43.5995 18.1504 43.3428 18.3398 43.0982 18.3398C42.8536 18.3398 42.5969 18.1504 42.5969 17.9168V17.2722H41.9478C41.7032 17.2722 41.5047 17.0272 41.5047 16.7937C41.5047 16.5602 41.7032 16.3152 41.9478 16.3152Z" fill="white"/>
<path d="M30.9566 23.8149L36.3904 30.9828C36.4968 31.1226 36.6494 31.2224 36.8205 31.265C36.8835 31.2798 36.9481 31.2892 37.0146 31.2892C37.0809 31.2892 37.1455 31.2806 37.2087 31.2659C37.3798 31.2232 37.5339 31.1249 37.6387 30.9851L43.074 23.8195C43.0986 23.7857 43.1171 23.7475 43.1247 23.7077C43.1434 23.6313 43.128 23.5502 43.0816 23.4841L41.7578 21.5413C41.7009 21.4589 41.6039 21.374 41.5006 21.374H38.4555H35.5812H32.5362C32.4329 21.374 32.3358 21.459 32.2789 21.5414L30.9998 23.4034L30.9551 23.4706C30.9088 23.5368 30.8934 23.5615 30.912 23.6982H30.9043C30.912 23.6982 30.9306 23.781 30.9566 23.8149ZM40.4311 23.2197H41.3918C41.6366 23.2197 41.835 23.3964 41.835 23.6299C41.835 23.8634 41.6366 24.04 41.3918 24.04H40.4311C40.1865 24.04 39.988 23.8634 39.988 23.6299C39.988 23.3964 40.1865 23.2197 40.4311 23.2197ZM32.682 23.2197H38.266C38.5108 23.2197 38.7091 23.3964 38.7091 23.6299C38.7091 23.8634 38.5108 24.04 38.266 24.04H32.682C32.4374 24.04 32.2388 23.8634 32.2388 23.6299C32.2388 23.3964 32.4374 23.2197 32.682 23.2197Z" fill="white"/>
<defs>
<filter id="filter0_d_507_151" x="0.191406" y="0" width="70.2617" height="65" filterUnits="userSpaceOnUse" color-interpolation-filters="sRGB">
<feFlood flood-opacity="0" result="BackgroundImageFix"/>
<feColorMatrix in="SourceAlpha" type="matrix" values="0 0 0 0 0 0 0 0 0 0 0 0 0 0 0 0 0 0 127 0" result="hardAlpha"/>
<feOffset dx="-4" dy="3"/>
<feComposite in2="hardAlpha" operator="out"/>
<feColorMatrix type="matrix" values="0 0 0 0 1 0 0 0 0 0.570833 0 0 0 0 0.872233 0 0 0 0.77 0"/>
<feBlend mode="normal" in2="BackgroundImageFix" result="effect1_dropShadow_507_151"/>
<feBlend mode="normal" in="SourceGraphic" in2="effect1_dropShadow_507_151" result="shape"/>
</filter>
</defs>
</svg>
