<svg width="60" height="60" viewBox="0 0 60 60" fill="none" xmlns="http://www.w3.org/2000/svg">
<g clip-path="url(#clip0_565_16)">
<circle cx="30.5" cy="30.5" r="24.5" fill="#1C6029"/>
<path d="M29.9992 4.42871C44.1219 4.42871 55.5706 15.8774 55.5706 30.0001C55.5706 44.1228 44.1219 55.5716 29.9992 55.5716C15.8765 55.5716 4.42773 44.1228 4.42773 30.0001C4.42773 15.8774 15.8765 4.42871 29.9992 4.42871ZM29.9992 6.42871C16.981 6.42871 6.42773 16.982 6.42773 30.0001C6.42773 43.0183 16.981 53.5716 29.9992 53.5716C43.0173 53.5716 53.5706 43.0183 53.5706 30.0001C53.5706 16.982 43.0173 6.42871 29.9992 6.42871ZM40.5928 24.6363C40.82 24.6944 41.0315 24.8029 41.2121 24.9539C41.3919 25.1042 41.5364 25.2929 41.6354 25.5062C41.734 25.7187 41.7849 25.9506 41.7849 26.1966C41.7772 26.5781 41.6387 26.9454 41.3927 27.2354C41.1455 27.5269 40.8051 27.7223 40.4368 27.7858C38.1913 28.2019 35.9235 28.4829 33.6473 28.6273C33.5041 28.6369 33.3643 28.676 33.2361 28.7425C33.1074 28.8092 32.9932 28.902 32.9003 29.0155C32.8071 29.1295 32.7375 29.2619 32.6959 29.4046C32.675 29.4761 32.6614 29.5494 32.6548 29.6153L32.6502 29.7073L32.659 29.8498L32.8515 31.5977C33.0918 33.7486 33.5337 35.8703 34.1692 37.9298L34.4166 38.6991L34.6838 39.4674L35.9263 42.8466C35.9984 43.0442 36.031 43.2543 36.0221 43.4647C36.0133 43.6752 35.9632 43.8819 35.8746 44.0728C35.7859 44.264 35.6603 44.4356 35.505 44.5775C35.3493 44.7197 35.1669 44.8291 34.9892 44.8914C34.8125 44.9617 34.6245 44.9986 34.4196 45.0001C34.114 44.9945 33.8167 44.8989 33.5642 44.7254C33.423 44.6285 33.2989 44.5093 33.1882 44.3582L33.0818 44.1961L33.0066 44.0457L32.6893 43.3564C31.8313 41.4808 31.0477 39.643 30.3328 37.8223L30.0017 36.9629L29.5743 38.0698C29.3395 38.6638 29.099 39.2562 28.8528 39.8466L28.4794 40.7307L27.9035 42.0506L27.3101 43.3602L27.0265 43.9427C26.8802 44.3391 26.5841 44.661 26.2027 44.8371C25.8195 45.014 25.3823 45.0289 24.9883 44.8785C24.5957 44.7287 24.2787 44.4273 24.1064 44.0415C23.9877 43.7758 23.9438 43.4838 23.9826 43.177L24.0158 42.9912L24.0659 42.8263L25.307 39.4509C26.0431 37.42 26.5843 35.3223 26.9231 33.1918L27.0406 32.3914L27.1404 31.5774L27.3395 29.8383C27.3573 29.6891 27.3451 29.5377 27.3037 29.3936C27.2623 29.2498 27.1927 29.1164 27.0992 29.0013C27.0062 28.8868 26.8915 28.793 26.7623 28.7255C26.6335 28.6582 26.4929 28.6183 26.3527 28.6084C24.0553 28.4628 21.7684 28.1775 19.5062 27.7544C19.3007 27.7167 19.1049 27.6381 18.93 27.5232C18.7555 27.4086 18.6055 27.2604 18.4882 27.0869C18.3713 26.914 18.2894 26.7196 18.2471 26.5151C18.2047 26.3105 18.2026 26.0995 18.2395 25.9022C18.275 25.6953 18.3507 25.4976 18.4625 25.3203C18.5746 25.1427 18.7207 24.9893 18.8925 24.8692C19.0647 24.7488 19.2591 24.6645 19.4644 24.6213C19.6698 24.578 19.8818 24.5769 20.0814 24.6168C26.6335 25.8479 33.352 25.8479 39.8971 24.6182C40.1275 24.5718 40.3652 24.5781 40.5928 24.6363ZM32.8048 16.1831C34.3512 17.7553 34.3512 20.3008 32.8048 21.873C31.2534 23.4502 28.7345 23.4502 27.1832 21.873C25.6367 20.3008 25.6367 17.7553 27.1832 16.1831C28.7345 14.6058 31.2534 14.6058 32.8048 16.1831Z" fill="white"/>
</g>
<defs>
<clipPath id="clip0_565_16">
<rect width="60" height="60" fill="white"/>
</clipPath>
</defs>
</svg>
