<svg width="71" height="65" viewBox="0 0 71 65" fill="none" xmlns="http://www.w3.org/2000/svg">
<g filter="url(#filter0_d_509_152)">
<path d="M4.73438 6C4.73438 2.68629 7.42067 0 10.7344 0H64.9951C68.3088 0 70.9951 2.68627 70.9951 5.99996L70.9955 56C70.9955 59.3137 68.3092 62 64.9955 62H10.7344C7.42066 62 4.73438 59.3137 4.73438 56V6Z" fill="#FAA15B"/>
</g>
<g clip-path="url(#clip0_509_152)">
<path d="M50.9468 29.6775C50.9247 28.9091 50.5293 28.2218 49.9288 27.77C50.0875 27.4455 50.1761 27.0838 50.1761 26.7028C50.1761 25.3064 48.986 24.1703 47.5231 24.1703H44.4481L44.4639 20.627C44.467 19.933 44.1862 19.2799 43.6731 18.7881C43.1601 18.2963 42.4772 18.0254 41.7501 18.0254C40.6593 18.0254 39.678 18.6466 39.2503 19.608C38.8836 20.432 38.1832 21.6554 37.2246 23.146C36.8183 23.7777 36.0831 24.1702 35.3059 24.1702H33.1253H31.0093H25.5645V38.3706H31.0094H33.1254L46.7515 38.3707C48.2143 38.3707 49.4044 37.2346 49.4044 35.8382C49.4044 35.4617 49.3179 35.1041 49.1628 34.7827C49.7796 34.3185 50.1762 33.5991 50.1762 32.7931C50.1762 32.4171 50.0899 32.0601 49.9353 31.739C50.0267 31.6701 50.1139 31.5949 50.1965 31.5139C50.7001 31.0197 50.9666 30.3674 50.9468 29.6775ZM31.0093 36.3508H27.6804V26.1902H31.0093V36.3508ZM48.68 30.1052C48.6209 30.1632 48.4923 30.2605 48.295 30.2605H47.5233H45.4091V32.2804H47.5233C47.8194 32.2804 48.0603 32.5104 48.0603 32.793C48.0603 33.0757 47.8195 33.3056 47.5233 33.3056H46.7516H45.4091V35.3255H46.7516C47.0477 35.3255 47.2886 35.5555 47.2886 35.8381C47.2886 36.1207 47.0477 36.3508 46.7516 36.3508H33.1253V26.1902H35.3059C36.8134 26.1902 38.2397 25.4286 39.028 24.2027C39.7341 23.1047 40.6838 21.5534 41.198 20.3976C41.2932 20.1836 41.5101 20.0453 41.7503 20.0453C41.9105 20.0453 42.0608 20.1049 42.1739 20.2133C42.287 20.3216 42.3487 20.4655 42.3481 20.6184L42.3232 26.1902H47.5233C47.8194 26.1902 48.0603 26.4202 48.0603 26.7028C48.0603 26.9854 47.8194 27.2154 47.5233 27.2154H45.409V29.2353H47.5233H48.2619C48.5682 29.2353 48.8239 29.4584 48.8318 29.7328C48.8372 29.922 48.739 30.0473 48.68 30.1052Z" fill="white"/>
<path d="M20.4473 14.665V42.405H34.4535L38.256 47.3349L42.0585 42.405H56.0647V14.665H20.4473ZM53.9487 40.3851H40.9887L38.2559 43.9281L35.5231 40.385H22.5632V16.6849H53.9487V40.3851Z" fill="white"/>
</g>
<defs>
<filter id="filter0_d_509_152" x="0.734375" y="0" width="70.2617" height="65" filterUnits="userSpaceOnUse" color-interpolation-filters="sRGB">
<feFlood flood-opacity="0" result="BackgroundImageFix"/>
<feColorMatrix in="SourceAlpha" type="matrix" values="0 0 0 0 0 0 0 0 0 0 0 0 0 0 0 0 0 0 127 0" result="hardAlpha"/>
<feOffset dx="-4" dy="3"/>
<feComposite in2="hardAlpha" operator="out"/>
<feColorMatrix type="matrix" values="0 0 0 0 0.980392 0 0 0 0 0.631373 0 0 0 0 0.356863 0 0 0 0.44 0"/>
<feBlend mode="normal" in2="BackgroundImageFix" result="effect1_dropShadow_509_152"/>
<feBlend mode="normal" in="SourceGraphic" in2="effect1_dropShadow_509_152" result="shape"/>
</filter>
<clipPath id="clip0_509_152">
<rect width="35.6173" height="34" fill="white" transform="translate(20.4473 14)"/>
</clipPath>
</defs>
</svg>
