<svg width="70" height="65" viewBox="0 0 70 65" fill="none" xmlns="http://www.w3.org/2000/svg">
<g filter="url(#filter0_d_509_154)">
<path d="M4 6C4 2.68629 6.68629 0 10 0H63.9996C67.3133 0 69.9996 2.68627 69.9996 5.99996L70 56C70 59.3137 67.3137 62 64 62H10C6.68629 62 4 59.3137 4 56V6Z" fill="#B192D7"/>
</g>
<path fill-rule="evenodd" clip-rule="evenodd" d="M41.6307 23.627H31.3706C26.1678 23.627 23.5663 23.627 22.1051 25.1483C20.6438 26.6697 20.9876 29.0202 21.6752 33.721L22.3273 38.1789C22.8666 41.8653 23.1362 43.7086 24.5193 44.8124C25.9025 45.9162 27.9426 45.9162 32.0226 45.9162H40.9786C45.0588 45.9162 47.0988 45.9162 48.482 44.8124C49.8652 43.7086 50.1347 41.8653 50.674 38.1789L51.3261 33.721C52.0137 29.0202 52.3575 26.6697 50.8963 25.1483C49.4349 23.627 46.8335 23.627 41.6307 23.627ZM40.48 36.3491C41.3409 35.8154 41.3409 34.4339 40.48 33.9002L35.2821 30.6779C34.4455 30.1593 33.4173 30.8344 33.4173 31.9023V38.347C33.4173 39.4149 34.4455 40.09 35.2821 39.5713L40.48 36.3491Z" fill="white"/>
<path opacity="0.4" d="M31.1189 15.083H41.8799C42.2382 15.0829 42.5131 15.0829 42.7533 15.1064C44.4611 15.2734 45.8591 16.3003 46.4519 17.6835H26.5469C27.1397 16.3003 28.5376 15.2734 30.2455 15.1064C30.4857 15.0829 30.7604 15.0829 31.1189 15.083Z" fill="white"/>
<path opacity="0.7" d="M27.7287 19.2812C25.5848 19.2812 23.8269 20.5759 23.2402 22.2933C23.228 22.3291 23.2163 22.3651 23.2051 22.4013C23.8189 22.2154 24.4577 22.094 25.1044 22.0111C26.77 21.7975 28.8749 21.7977 31.32 21.7978H41.9453C44.3904 21.7977 46.4954 21.7975 48.1608 22.0111C48.8076 22.094 49.4464 22.2154 50.0602 22.4013C50.0491 22.3651 50.0372 22.3291 50.025 22.2933C49.4384 20.5759 47.6805 19.2812 45.5366 19.2812H27.7287Z" fill="white"/>
<defs>
<filter id="filter0_d_509_154" x="0" y="0" width="70" height="65" filterUnits="userSpaceOnUse" color-interpolation-filters="sRGB">
<feFlood flood-opacity="0" result="BackgroundImageFix"/>
<feColorMatrix in="SourceAlpha" type="matrix" values="0 0 0 0 0 0 0 0 0 0 0 0 0 0 0 0 0 0 127 0" result="hardAlpha"/>
<feOffset dx="-4" dy="3"/>
<feComposite in2="hardAlpha" operator="out"/>
<feColorMatrix type="matrix" values="0 0 0 0 0.694118 0 0 0 0 0.572549 0 0 0 0 0.843137 0 0 0 0.46 0"/>
<feBlend mode="normal" in2="BackgroundImageFix" result="effect1_dropShadow_509_154"/>
<feBlend mode="normal" in="SourceGraphic" in2="effect1_dropShadow_509_154" result="shape"/>
</filter>
</defs>
</svg>
